<svg width="157" height="72" viewBox="0 0 157 72" fill="none" xmlns="http://www.w3.org/2000/svg">
<path d="M148.83 12.7191C143.108 5.76669 134.753 1.19803 126.01 0.227865C117.297 -0.812176 108.339 1.75164 101.602 7.0271C99.9116 8.34126 98.3495 9.81129 96.9476 11.4184C95.5618 13.0389 94.3281 14.6299 93.0251 16.2504L85.3535 25.987L94.0531 17.1776C95.495 15.7237 96.9209 14.173 98.3629 12.789C99.8181 11.4184 101.38 10.1848 103.054 9.11793C109.711 4.83952 117.861 3.17599 125.367 4.69977C132.9 6.04349 139.733 10.3783 144.139 16.4573C148.585 22.496 150.71 30.1418 149.805 37.4947C148.969 44.8368 145.306 51.6763 139.829 56.4008C134.368 61.1791 127.137 63.6166 120.029 63.2834C116.488 63.0764 112.964 62.2863 109.725 60.819C106.486 59.3516 103.522 57.2715 101.052 54.7239L100.133 53.7402L99.1159 52.5766L97.0865 50.2654L66.5951 15.6968L64.539 13.3829L63.5083 12.2354L62.3013 10.9615C55.7139 4.26978 46.603 0.198303 37.2732 0.00480685C32.635 -0.0489413 27.9835 0.68473 23.6337 2.33213C19.2972 3.9661 15.2892 6.43049 11.874 9.54792C8.4694 12.6627 5.63094 16.417 3.6256 20.5718C1.62292 24.74 0.429325 29.2818 0.100886 33.8666C-0.601385 43.0227 2.39195 52.3697 8.16767 59.2818C13.89 66.2342 22.2478 70.8028 30.9875 71.773C39.7005 72.8104 48.6618 70.2492 55.3988 64.9738C57.0864 63.6569 58.6511 62.1896 60.0503 60.5825C61.4362 58.962 62.6725 57.3683 63.9756 55.7505L71.6472 46.0138L62.9449 54.8206C61.5056 56.2745 60.077 57.8252 58.6378 59.2119C57.1825 60.5825 55.6177 61.816 53.9435 62.8802C47.2893 67.1613 39.1397 68.8222 31.6337 67.2984C24.101 65.9547 17.2652 61.6225 12.8619 55.5408C8.416 49.5022 6.28782 41.8591 7.1957 34.5035C8.03148 27.1641 11.695 20.3219 17.169 15.6C22.6323 10.8218 29.8633 8.38426 36.9715 8.7175C40.5096 8.92443 44.0369 9.71454 47.2759 11.1819C50.5149 12.6492 53.4789 14.7266 55.9488 17.277L56.8674 18.2579L57.8821 19.4216L59.9141 21.7355L90.4029 56.3041L92.4616 58.6153L93.4897 59.7655L94.6993 61.0393C101.284 67.7284 110.395 71.7999 119.727 71.9934C124.366 72.0498 129.017 71.3161 133.367 69.6687C137.703 68.0348 141.709 65.5677 145.127 62.4529C148.529 59.3355 151.37 55.5838 153.372 51.4291C155.378 47.2581 156.571 42.7164 156.9 38.1316C157.599 28.9781 154.609 19.6312 148.83 12.7191Z" fill="#2CA0E2"/>
</svg>
