<svg width="103" height="119" viewBox="0 0 103 119" fill="none" xmlns="http://www.w3.org/2000/svg">
<path d="M0 46.9073C12.5336 46.2893 23.1593 41.4533 31.8769 32.3994C40.5946 23.3455 44.9535 12.5457 44.9535 0C44.9535 12.5457 49.3278 23.3455 58.0765 32.3994C66.8252 41.4533 77.4664 46.2893 90 46.9073C81.7477 47.2781 74.1779 49.6111 67.2906 53.9063C60.4033 58.2015 54.9586 63.8872 50.9566 70.9635C46.9545 78.0398 44.9535 85.7186 44.9535 94C44.9535 81.3925 40.5946 70.5464 31.8769 61.4615C23.1593 52.3767 12.5336 47.5253 0 46.9073Z" fill="#2CA0E2"/>
<path d="M55 94C61.7097 93.6795 67.3871 91.0994 72.0323 86.2596C76.6774 81.4199 79 75.6667 79 69C79 75.6667 81.3226 81.4199 85.9677 86.2596C90.6129 91.0994 96.2903 93.6795 103 94C96.2903 94.3205 90.6129 96.9006 85.9677 101.74C81.3226 106.58 79 112.333 79 119C79 112.333 76.6774 106.58 72.0323 101.74C67.3871 96.9006 61.7097 94.3205 55 94Z" fill="#2CA0E2"/>
</svg>
