<svg width="463" height="258" viewBox="0 0 463 258" fill="none" xmlns="http://www.w3.org/2000/svg">
<g filter="url(#filter0_b_122_175)">
<path d="M0 0H463V189.296C463 196.52 459.746 203.36 454.141 207.917L399.158 252.622C394.879 256.101 389.533 258 384.018 258H0V0Z" fill="url(#paint0_linear_122_175)" fill-opacity="0.1"/>
<path d="M1 1H462V189.296C462 196.219 458.881 202.774 453.51 207.141L398.528 251.846C394.427 255.18 389.303 257 384.018 257H1V1Z" stroke="url(#paint1_linear_122_175)" stroke-width="2"/>
</g>
<path d="M37.5469 63H43.7383L50.7891 40.2852H52.5859V34.8164H47.3906L37.5469 63ZM42.8398 56.1641H58.875L57.4297 51.75H44.2852L42.8398 56.1641ZM57.957 63H64.1484L54.3242 34.8164H50.9062V40.2852L57.957 63ZM72.9766 63.4297C74.5651 63.4297 75.8932 63.0846 76.9609 62.3945C78.0286 61.7044 78.8294 60.7539 79.3633 59.543H79.4805V63H85.1836V42.0625H79.4805V54.0938C79.4805 54.9922 79.3047 55.793 78.9531 56.4961C78.6146 57.1862 78.1328 57.7266 77.5078 58.1172C76.8958 58.5078 76.1602 58.7031 75.3008 58.7031C74.0247 58.7031 73.0612 58.3255 72.4102 57.5703C71.7721 56.8151 71.4531 55.7539 71.4531 54.3867V42.0625H65.75V55.5781C65.75 57.2057 66.0299 58.6055 66.5898 59.7773C67.1628 60.9492 67.9831 61.8542 69.0508 62.4922C70.1315 63.1172 71.4401 63.4297 72.9766 63.4297ZM97.2148 63.4297C97.8138 63.4297 98.3411 63.4036 98.7969 63.3516C99.2656 63.3125 99.6562 63.2669 99.9688 63.2148V59.0352C99.7995 59.0612 99.6172 59.0872 99.4219 59.1133C99.2266 59.1263 98.9987 59.1328 98.7383 59.1328C97.8789 59.1328 97.2279 58.944 96.7852 58.5664C96.3555 58.1758 96.1406 57.4922 96.1406 56.5156V46.3594H99.9688V42.0625H96.1406V36.9453H90.3789V42.0625H87.4688V46.3594H90.3789V57.1406C90.3789 59.3802 90.9388 60.9883 92.0586 61.9648C93.1784 62.9414 94.8971 63.4297 97.2148 63.4297ZM103.25 63H108.953V51.0078C108.953 50.0964 109.122 49.2956 109.461 48.6055C109.812 47.9023 110.294 47.3555 110.906 46.9648C111.531 46.5612 112.26 46.3594 113.094 46.3594C114.396 46.3594 115.392 46.776 116.082 47.6094C116.785 48.4297 117.137 49.569 117.137 51.0273V63H122.84V49.8555C122.84 48.1628 122.54 46.7044 121.941 45.4805C121.355 44.2565 120.516 43.3125 119.422 42.6484C118.328 41.9714 117.02 41.6328 115.496 41.6328C113.934 41.6328 112.605 41.9844 111.512 42.6875C110.431 43.3776 109.617 44.3737 109.07 45.6758H108.953V34.8164H103.25V63ZM136.043 63.4297C137.54 63.4297 138.842 63.2344 139.949 62.8438C141.069 62.4531 142.013 61.9323 142.781 61.2812C143.562 60.6302 144.181 59.9141 144.637 59.1328C145.092 58.3516 145.398 57.5768 145.555 56.8086L145.613 56.5938H140.379L140.34 56.7109C140.21 57.1016 139.962 57.4857 139.598 57.8633C139.233 58.2409 138.764 58.5534 138.191 58.8008C137.618 59.0482 136.941 59.1719 136.16 59.1719C135.171 59.1719 134.318 58.957 133.602 58.5273C132.885 58.0846 132.332 57.4531 131.941 56.6328C131.564 55.8125 131.375 54.8229 131.375 53.6641V51.457C131.375 50.2591 131.564 49.25 131.941 48.4297C132.332 47.5964 132.866 46.9648 133.543 46.5352C134.233 46.1055 135.021 45.8906 135.906 45.8906C136.792 45.8906 137.566 46.099 138.23 46.5156C138.908 46.9323 139.435 47.5573 139.812 48.3906C140.19 49.2109 140.379 50.2331 140.379 51.457V53.6445L143.094 50.2852H128.543V53.8789H145.789V52.1211C145.789 50.0117 145.379 48.1693 144.559 46.5938C143.751 45.0182 142.599 43.8008 141.102 42.9414C139.617 42.069 137.853 41.6328 135.809 41.6328C133.764 41.6328 131.987 42.082 130.477 42.9805C128.979 43.8659 127.814 45.1289 126.98 46.7695C126.16 48.3971 125.75 50.3242 125.75 52.5508V52.5703C125.75 54.7969 126.16 56.724 126.98 58.3516C127.814 59.9792 128.999 61.2357 130.535 62.1211C132.072 62.9935 133.908 63.4297 136.043 63.4297ZM148.738 63H154.441V50.9688C154.441 50.0443 154.611 49.237 154.949 48.5469C155.301 47.8568 155.789 47.3229 156.414 46.9453C157.039 46.5547 157.775 46.3594 158.621 46.3594C159.897 46.3594 160.854 46.737 161.492 47.4922C162.143 48.2344 162.469 49.2891 162.469 50.6562V63H168.172V49.4844C168.172 47.0234 167.54 45.1029 166.277 43.7227C165.027 42.3294 163.25 41.6328 160.945 41.6328C159.37 41.6328 158.048 41.9779 156.98 42.668C155.913 43.3581 155.105 44.3021 154.559 45.5H154.441V42.0625H148.738V63ZM180.105 63.4297C180.704 63.4297 181.232 63.4036 181.688 63.3516C182.156 63.3125 182.547 63.2669 182.859 63.2148V59.0352C182.69 59.0612 182.508 59.0872 182.312 59.1133C182.117 59.1263 181.889 59.1328 181.629 59.1328C180.77 59.1328 180.118 58.944 179.676 58.5664C179.246 58.1758 179.031 57.4922 179.031 56.5156V46.3594H182.859V42.0625H179.031V36.9453H173.27V42.0625H170.359V46.3594H173.27V57.1406C173.27 59.3802 173.829 60.9883 174.949 61.9648C176.069 62.9414 177.788 63.4297 180.105 63.4297ZM186.121 63H191.824V42.0625H186.121V63ZM188.973 39.3672C189.832 39.3672 190.555 39.0742 191.141 38.4883C191.727 37.9023 192.02 37.2057 192.02 36.3984C192.02 35.5781 191.727 34.8815 191.141 34.3086C190.555 33.7227 189.832 33.4297 188.973 33.4297C188.113 33.4297 187.391 33.7227 186.805 34.3086C186.219 34.8815 185.926 35.5781 185.926 36.3984C185.926 37.2057 186.219 37.9023 186.805 38.4883C187.391 39.0742 188.113 39.3672 188.973 39.3672ZM205.223 63.4297C207.085 63.4297 208.706 63.0781 210.086 62.375C211.479 61.6589 212.573 60.6953 213.367 59.4844C214.161 58.2734 214.604 56.9062 214.695 55.3828V55.2656H209.383L209.363 55.4414C209.168 56.4961 208.719 57.349 208.016 58C207.326 58.638 206.408 58.957 205.262 58.957C204.324 58.957 203.51 58.7096 202.82 58.2148C202.143 57.707 201.616 56.9779 201.238 56.0273C200.874 55.0638 200.691 53.8984 200.691 52.5312V52.5117C200.691 51.1836 200.874 50.0443 201.238 49.0938C201.616 48.1302 202.143 47.3945 202.82 46.8867C203.51 46.3659 204.318 46.1055 205.242 46.1055C206.427 46.1055 207.365 46.444 208.055 47.1211C208.745 47.7852 209.174 48.6185 209.344 49.6211L209.383 49.7969H214.676V49.6602C214.598 48.1497 214.161 46.7891 213.367 45.5781C212.586 44.3672 211.499 43.4102 210.105 42.707C208.712 41.9909 207.065 41.6328 205.164 41.6328C203.081 41.6328 201.264 42.0755 199.715 42.9609C198.178 43.8333 196.987 45.0833 196.141 46.7109C195.307 48.3255 194.891 50.2526 194.891 52.4922V52.5117C194.891 54.7513 195.307 56.6914 196.141 58.332C196.974 59.9596 198.165 61.2161 199.715 62.1016C201.264 62.987 203.1 63.4297 205.223 63.4297Z" fill="white"/>
<path d="M45.5781 219H47.625V196.453H45.5469L39.4688 200.625V202.781L45.5156 198.734H45.5781V219ZM53.2188 219H67.9219V217.094H55.4844L56.1719 217.75V216.281L55.4844 217.75L62.2188 210.734C63.5521 209.359 64.5885 208.198 65.3281 207.25C66.0677 206.302 66.5885 205.448 66.8906 204.688C67.1927 203.927 67.3438 203.146 67.3438 202.344V202.312C67.3438 201.146 67.0417 200.094 66.4375 199.156C65.8438 198.219 65.026 197.474 63.9844 196.922C62.9427 196.37 61.75 196.094 60.4062 196.094C59.0521 196.094 57.8281 196.38 56.7344 196.953C55.6406 197.516 54.7656 198.292 54.1094 199.281C53.4635 200.26 53.1302 201.38 53.1094 202.641V202.781H55.1719V202.656C55.1927 201.771 55.4323 200.974 55.8906 200.266C56.349 199.557 56.9688 199 57.75 198.594C58.5417 198.177 59.4427 197.969 60.4531 197.969C61.3698 197.969 62.1875 198.161 62.9062 198.547C63.625 198.932 64.1875 199.458 64.5938 200.125C65.0104 200.792 65.2188 201.552 65.2188 202.406V202.438C65.2188 203.094 65.1042 203.719 64.875 204.312C64.6562 204.906 64.2552 205.578 63.6719 206.328C63.099 207.068 62.276 208 61.2031 209.125L53.2188 217.5V219ZM85.2188 219.359C86.8646 219.359 88.2917 219.099 89.5 218.578C90.7188 218.057 91.6562 217.323 92.3125 216.375C92.9792 215.417 93.3125 214.292 93.3125 213V212.984C93.3125 211.318 92.8073 210.005 91.7969 209.047C90.7865 208.089 89.1302 207.349 86.8281 206.828L84.3594 206.281C82.724 205.906 81.526 205.391 80.7656 204.734C80.0052 204.068 79.625 203.214 79.625 202.172V202.141C79.625 201.328 79.849 200.62 80.2969 200.016C80.7552 199.401 81.3958 198.922 82.2188 198.578C83.0417 198.234 83.9948 198.062 85.0781 198.062C86.1406 198.062 87.0781 198.24 87.8906 198.594C88.7031 198.938 89.3542 199.427 89.8438 200.062C90.3438 200.698 90.651 201.458 90.7656 202.344L90.7812 202.547H92.9062L92.8906 202.328C92.8073 201.089 92.4219 200.005 91.7344 199.078C91.0573 198.141 90.151 197.411 89.0156 196.891C87.8802 196.359 86.5833 196.094 85.125 196.094C83.6458 196.094 82.3281 196.354 81.1719 196.875C80.0156 197.396 79.1094 198.115 78.4531 199.031C77.7969 199.948 77.4635 201.005 77.4531 202.203V202.219C77.4531 203.823 77.9635 205.115 78.9844 206.094C80.0156 207.062 81.6198 207.797 83.7969 208.297L86.2656 208.844C88.0052 209.24 89.2552 209.771 90.0156 210.438C90.776 211.094 91.1562 211.974 91.1562 213.078V213.094C91.1562 213.958 90.9115 214.719 90.4219 215.375C89.9427 216.021 89.2656 216.521 88.3906 216.875C87.526 217.219 86.5052 217.391 85.3281 217.391C84.1406 217.391 83.0938 217.219 82.1875 216.875C81.2812 216.521 80.5573 216.026 80.0156 215.391C79.474 214.745 79.151 213.99 79.0469 213.125L79.0156 212.906H76.8906L76.9062 213.125C77 214.385 77.401 215.484 78.1094 216.422C78.8281 217.359 79.7917 218.083 81 218.594C82.2188 219.104 83.625 219.359 85.2188 219.359ZM105.797 219.359C107.901 219.359 109.714 218.885 111.234 217.938C112.755 216.99 113.932 215.646 114.766 213.906C115.599 212.167 116.016 210.109 116.016 207.734V207.703C116.016 205.328 115.599 203.276 114.766 201.547C113.932 199.807 112.75 198.464 111.219 197.516C109.698 196.568 107.885 196.094 105.781 196.094C103.698 196.094 101.891 196.568 100.359 197.516C98.8281 198.464 97.6406 199.807 96.7969 201.547C95.9635 203.276 95.5469 205.328 95.5469 207.703V207.734C95.5469 210.109 95.9635 212.167 96.7969 213.906C97.6302 215.646 98.8125 216.99 100.344 217.938C101.875 218.885 103.693 219.359 105.797 219.359ZM105.797 217.391C104.151 217.391 102.719 216.995 101.5 216.203C100.292 215.411 99.3542 214.292 98.6875 212.844C98.0312 211.396 97.7031 209.693 97.7031 207.734V207.703C97.7031 205.724 98.0312 204.016 98.6875 202.578C99.3542 201.141 100.292 200.031 101.5 199.25C102.719 198.458 104.146 198.062 105.781 198.062C107.427 198.062 108.854 198.458 110.062 199.25C111.271 200.031 112.203 201.146 112.859 202.594C113.526 204.031 113.859 205.734 113.859 207.703V207.734C113.859 209.682 113.531 211.38 112.875 212.828C112.219 214.276 111.286 215.401 110.078 216.203C108.88 216.995 107.453 217.391 105.797 217.391ZM119.328 219H132.734V217.078H121.453V196.453H119.328V219Z" fill="white"/>
<path d="M247.572 25.9012C248.873 22.902 253.127 22.902 254.428 25.9012V25.9012C255.385 28.108 258.148 28.8484 260.081 27.4159V27.4159C262.707 25.4691 266.391 27.5958 266.018 30.8438V30.8438C265.744 33.2336 267.766 35.2562 270.156 34.982V34.982C273.404 34.6092 275.531 38.2928 273.584 40.9192V40.9192C272.152 42.8518 272.892 45.6147 275.099 46.5721V46.5721C278.098 47.8733 278.098 52.1267 275.099 53.4279V53.4279C272.892 54.3853 272.152 57.1482 273.584 59.0808V59.0808C275.531 61.7072 273.404 65.3908 270.156 65.018V65.018C267.766 64.7438 265.744 66.7664 266.018 69.1562V69.1562C266.391 72.4042 262.707 74.5309 260.081 72.5841V72.5841C258.148 71.1516 255.385 71.892 254.428 74.0988V74.0988C253.127 77.098 248.873 77.098 247.572 74.0988V74.0988C246.615 71.892 243.852 71.1516 241.919 72.5841V72.5841C239.293 74.5309 235.609 72.4042 235.982 69.1562V69.1562C236.256 66.7664 234.234 64.7438 231.844 65.018V65.018C228.596 65.3908 226.469 61.7072 228.416 59.0808V59.0808C229.848 57.1482 229.108 54.3853 226.901 53.4279V53.4279C223.902 52.1267 223.902 47.8733 226.901 46.5721V46.5721C229.108 45.6147 229.848 42.8518 228.416 40.9192V40.9192C226.469 38.2927 228.596 34.6092 231.844 34.982V34.982C234.234 35.2562 236.256 33.2336 235.982 30.8438V30.8438C235.609 27.5958 239.293 25.4691 241.919 27.4159V27.4159C243.852 28.8484 246.615 28.108 247.572 25.9012V25.9012Z" fill="white"/>
<path opacity="0.7" d="M170.289 216.754C171.344 216.754 172.297 216.578 173.148 216.227C174.008 215.875 174.691 215.363 175.199 214.691C175.707 214.012 175.961 213.188 175.961 212.219V212.207C175.961 211.012 175.574 210.086 174.801 209.43C174.027 208.766 172.867 208.25 171.32 207.883L169.551 207.461C168.395 207.18 167.574 206.809 167.09 206.348C166.613 205.879 166.375 205.301 166.375 204.613V204.59C166.375 204.074 166.527 203.602 166.832 203.172C167.137 202.734 167.578 202.387 168.156 202.129C168.734 201.863 169.43 201.73 170.242 201.73C170.969 201.73 171.617 201.855 172.188 202.105C172.758 202.348 173.219 202.695 173.57 203.148C173.922 203.594 174.129 204.121 174.191 204.73L174.203 204.836L175.738 204.824V204.695C175.684 203.828 175.406 203.07 174.906 202.422C174.414 201.766 173.766 201.254 172.961 200.887C172.156 200.52 171.25 200.336 170.242 200.336C169.203 200.336 168.273 200.516 167.453 200.875C166.641 201.234 166 201.738 165.531 202.387C165.062 203.035 164.828 203.797 164.828 204.672V204.684C164.828 205.809 165.199 206.707 165.941 207.379C166.691 208.051 167.812 208.562 169.305 208.914L171.074 209.336C172.348 209.641 173.223 210.027 173.699 210.496C174.176 210.957 174.414 211.559 174.414 212.301V212.312C174.414 212.898 174.266 213.422 173.969 213.883C173.672 214.344 173.219 214.707 172.609 214.973C172.008 215.23 171.242 215.359 170.312 215.359C169.406 215.359 168.645 215.223 168.027 214.949C167.41 214.668 166.93 214.289 166.586 213.812C166.242 213.336 166.035 212.797 165.965 212.195L165.941 212.078H164.395L164.406 212.207C164.477 213.145 164.777 213.953 165.309 214.633C165.84 215.312 166.539 215.836 167.406 216.203C168.273 216.57 169.234 216.754 170.289 216.754ZM169.668 218.723H170.781V198.391H169.668V218.723ZM183.227 217H184.773V200.09H183.215L178.656 203.219V204.848L183.168 201.812H183.227V217ZM194.887 217.281C196.16 217.281 197.25 216.93 198.156 216.227C199.062 215.516 199.758 214.508 200.242 213.203C200.734 211.898 200.98 210.352 200.98 208.562V208.527C200.98 206.738 200.734 205.191 200.242 203.887C199.758 202.582 199.062 201.578 198.156 200.875C197.25 200.164 196.16 199.809 194.887 199.809C193.621 199.809 192.535 200.164 191.629 200.875C190.723 201.578 190.027 202.582 189.543 203.887C189.059 205.191 188.816 206.738 188.816 208.527V208.562C188.816 210.344 189.059 211.887 189.543 213.191C190.027 214.496 190.723 215.504 191.629 216.215C192.535 216.926 193.621 217.281 194.887 217.281ZM194.887 215.875C193.949 215.875 193.145 215.578 192.473 214.984C191.809 214.391 191.301 213.547 190.949 212.453C190.598 211.359 190.422 210.062 190.422 208.562V208.527C190.422 207.027 190.598 205.73 190.949 204.637C191.301 203.543 191.809 202.699 192.473 202.105C193.145 201.512 193.949 201.215 194.887 201.215C195.832 201.215 196.637 201.512 197.301 202.105C197.973 202.699 198.488 203.543 198.848 204.637C199.207 205.723 199.387 207.02 199.387 208.527V208.562C199.387 210.055 199.207 211.352 198.848 212.453C198.488 213.547 197.973 214.391 197.301 214.984C196.637 215.578 195.832 215.875 194.887 215.875ZM209.324 217.281C210.598 217.281 211.688 216.93 212.594 216.227C213.5 215.516 214.195 214.508 214.68 213.203C215.172 211.898 215.418 210.352 215.418 208.562V208.527C215.418 206.738 215.172 205.191 214.68 203.887C214.195 202.582 213.5 201.578 212.594 200.875C211.688 200.164 210.598 199.809 209.324 199.809C208.059 199.809 206.973 200.164 206.066 200.875C205.16 201.578 204.465 202.582 203.98 203.887C203.496 205.191 203.254 206.738 203.254 208.527V208.562C203.254 210.344 203.496 211.887 203.98 213.191C204.465 214.496 205.16 215.504 206.066 216.215C206.973 216.926 208.059 217.281 209.324 217.281ZM209.324 215.875C208.387 215.875 207.582 215.578 206.91 214.984C206.246 214.391 205.738 213.547 205.387 212.453C205.035 211.359 204.859 210.062 204.859 208.562V208.527C204.859 207.027 205.035 205.73 205.387 204.637C205.738 203.543 206.246 202.699 206.91 202.105C207.582 201.512 208.387 201.215 209.324 201.215C210.27 201.215 211.074 201.512 211.738 202.105C212.41 202.699 212.926 203.543 213.285 204.637C213.645 205.723 213.824 207.02 213.824 208.527V208.562C213.824 210.055 213.645 211.352 213.285 212.453C212.926 213.547 212.41 214.391 211.738 214.984C211.074 215.578 210.27 215.875 209.324 215.875ZM223.762 217.281C225.035 217.281 226.125 216.93 227.031 216.227C227.938 215.516 228.633 214.508 229.117 213.203C229.609 211.898 229.855 210.352 229.855 208.562V208.527C229.855 206.738 229.609 205.191 229.117 203.887C228.633 202.582 227.938 201.578 227.031 200.875C226.125 200.164 225.035 199.809 223.762 199.809C222.496 199.809 221.41 200.164 220.504 200.875C219.598 201.578 218.902 202.582 218.418 203.887C217.934 205.191 217.691 206.738 217.691 208.527V208.562C217.691 210.344 217.934 211.887 218.418 213.191C218.902 214.496 219.598 215.504 220.504 216.215C221.41 216.926 222.496 217.281 223.762 217.281ZM223.762 215.875C222.824 215.875 222.02 215.578 221.348 214.984C220.684 214.391 220.176 213.547 219.824 212.453C219.473 211.359 219.297 210.062 219.297 208.562V208.527C219.297 207.027 219.473 205.73 219.824 204.637C220.176 203.543 220.684 202.699 221.348 202.105C222.02 201.512 222.824 201.215 223.762 201.215C224.707 201.215 225.512 201.512 226.176 202.105C226.848 202.699 227.363 203.543 227.723 204.637C228.082 205.723 228.262 207.02 228.262 208.527V208.562C228.262 210.055 228.082 211.352 227.723 212.453C227.363 213.547 226.848 214.391 226.176 214.984C225.512 215.578 224.707 215.875 223.762 215.875Z" fill="white"/>
<path d="M266 48.62V50C265.998 53.2347 264.951 56.3821 263.014 58.9728C261.077 61.5635 258.355 63.4588 255.253 64.3759C252.151 65.293 248.836 65.1829 245.802 64.0619C242.768 62.9409 240.177 60.8692 238.416 58.1556C236.656 55.4421 235.82 52.2321 236.033 49.0045C236.245 45.7769 237.496 42.7045 239.597 40.2457C241.699 37.7868 244.539 36.0731 247.694 35.3603C250.849 34.6474 254.15 34.9735 257.105 36.29" stroke="#37B30B" stroke-width="2" stroke-linecap="round" stroke-linejoin="round"/>
<path d="M266 38L251 53.015L246.5 48.515" stroke="#37B30B" stroke-width="2" stroke-linecap="round" stroke-linejoin="round"/>
<g filter="url(#filter1_b_122_175)">
<path d="M448 148H225.195L199 134.981V111H426.125L448 127.51V148Z" fill="url(#paint2_linear_122_175)" fill-opacity="0.1"/>
<path d="M447 147H225.43L200 134.362V112H425.79L447 128.008V147Z" stroke="url(#paint3_linear_122_175)" stroke-width="2"/>
</g>
<path d="M237.348 137.205C238.22 137.205 238.969 137.055 239.594 136.756C240.226 136.45 240.73 136.033 241.108 135.506C241.485 134.979 241.733 134.37 241.85 133.68L241.86 133.602H239.829L239.809 133.66C239.653 134.227 239.37 134.663 238.959 134.969C238.549 135.275 238.012 135.428 237.348 135.428C236.775 135.428 236.28 135.281 235.864 134.988C235.447 134.689 235.125 134.262 234.897 133.709C234.669 133.156 234.555 132.492 234.555 131.717V131.697C234.555 130.942 234.666 130.291 234.887 129.744C235.115 129.197 235.437 128.777 235.854 128.484C236.271 128.191 236.769 128.045 237.348 128.045C238.045 128.045 238.601 128.221 239.018 128.572C239.435 128.917 239.702 129.35 239.819 129.871L239.829 129.91H241.87L241.86 129.852C241.775 129.174 241.544 128.566 241.166 128.025C240.789 127.485 240.278 127.059 239.633 126.746C238.995 126.427 238.23 126.268 237.338 126.268C236.323 126.268 235.444 126.489 234.702 126.932C233.959 127.368 233.386 127.993 232.983 128.807C232.586 129.62 232.387 130.584 232.387 131.697V131.717C232.387 132.843 232.586 133.816 232.983 134.637C233.386 135.457 233.959 136.092 234.702 136.541C235.444 136.984 236.326 137.205 237.348 137.205ZM244.345 137H246.464V130.838C246.464 130.278 246.565 129.793 246.767 129.383C246.975 128.973 247.265 128.654 247.636 128.426C248.007 128.198 248.446 128.084 248.954 128.084C249.729 128.084 250.305 128.309 250.683 128.758C251.06 129.201 251.249 129.858 251.249 130.73V137H253.368V130.252C253.368 129.419 253.225 128.706 252.939 128.113C252.652 127.514 252.236 127.059 251.689 126.746C251.142 126.427 250.478 126.268 249.696 126.268C248.928 126.268 248.284 126.43 247.763 126.756C247.249 127.075 246.861 127.524 246.601 128.104H246.464V122.391H244.345V137ZM260.746 137.205C261.41 137.205 262.003 137.12 262.523 136.951C263.051 136.775 263.5 136.544 263.871 136.258C264.249 135.965 264.551 135.643 264.779 135.291C265.007 134.933 265.163 134.572 265.248 134.207L265.268 134.119H263.227L263.197 134.197C263.113 134.399 262.966 134.598 262.758 134.793C262.549 134.982 262.279 135.141 261.947 135.271C261.622 135.402 261.238 135.467 260.795 135.467C260.209 135.467 259.701 135.337 259.271 135.076C258.842 134.816 258.51 134.441 258.275 133.953C258.041 133.465 257.924 132.876 257.924 132.186V131.346C257.924 130.623 258.041 130.014 258.275 129.52C258.516 129.018 258.842 128.641 259.252 128.387C259.662 128.133 260.128 128.006 260.648 128.006C261.169 128.006 261.628 128.13 262.025 128.377C262.429 128.618 262.745 128.986 262.973 129.48C263.201 129.969 263.314 130.59 263.314 131.346V132.176L264.34 130.779H256.869V132.293H265.385V131.551C265.385 130.496 265.193 129.575 264.809 128.787C264.431 127.993 263.887 127.374 263.178 126.932C262.468 126.489 261.622 126.268 260.639 126.268C259.656 126.268 258.799 126.499 258.07 126.961C257.348 127.417 256.788 128.055 256.391 128.875C255.993 129.695 255.795 130.656 255.795 131.756V131.766C255.795 132.879 255.993 133.842 256.391 134.656C256.788 135.47 257.354 136.098 258.09 136.541C258.832 136.984 259.717 137.205 260.746 137.205ZM272.343 137.205C273.215 137.205 273.964 137.055 274.589 136.756C275.22 136.45 275.725 136.033 276.102 135.506C276.48 134.979 276.727 134.37 276.845 133.68L276.854 133.602H274.823L274.804 133.66C274.647 134.227 274.364 134.663 273.954 134.969C273.544 135.275 273.007 135.428 272.343 135.428C271.77 135.428 271.275 135.281 270.858 134.988C270.442 134.689 270.119 134.262 269.891 133.709C269.664 133.156 269.55 132.492 269.55 131.717V131.697C269.55 130.942 269.66 130.291 269.882 129.744C270.11 129.197 270.432 128.777 270.848 128.484C271.265 128.191 271.763 128.045 272.343 128.045C273.039 128.045 273.596 128.221 274.012 128.572C274.429 128.917 274.696 129.35 274.813 129.871L274.823 129.91H276.864L276.854 129.852C276.77 129.174 276.539 128.566 276.161 128.025C275.783 127.485 275.272 127.059 274.628 126.746C273.99 126.427 273.225 126.268 272.333 126.268C271.317 126.268 270.438 126.489 269.696 126.932C268.954 127.368 268.381 127.993 267.977 128.807C267.58 129.62 267.382 130.584 267.382 131.697V131.717C267.382 132.843 267.58 133.816 267.977 134.637C268.381 135.457 268.954 136.092 269.696 136.541C270.438 136.984 271.32 137.205 272.343 137.205ZM279.349 137H281.468V122.391H279.349V137ZM285.98 137H288.539L283.734 130.711L282.211 132.078L285.98 137ZM281.224 133.436L282.777 131.883L283.48 131.365L288.275 126.473H285.785L281.605 130.916H281.156L281.224 133.436ZM295.823 137H297.943V126.473H295.823V137ZM296.888 124.656C297.252 124.656 297.562 124.529 297.816 124.275C298.07 124.015 298.196 123.709 298.196 123.357C298.196 122.993 298.07 122.687 297.816 122.439C297.562 122.186 297.252 122.059 296.888 122.059C296.53 122.059 296.221 122.186 295.96 122.439C295.706 122.687 295.579 122.993 295.579 123.357C295.579 123.709 295.706 124.015 295.96 124.275C296.221 124.529 296.53 124.656 296.888 124.656ZM304.93 137.098C305.138 137.098 305.34 137.088 305.535 137.068C305.73 137.049 305.906 137.026 306.062 137V135.32C305.932 135.327 305.812 135.337 305.701 135.35C305.59 135.356 305.46 135.359 305.311 135.359C304.809 135.359 304.441 135.239 304.207 134.998C303.979 134.757 303.865 134.36 303.865 133.807V128.152H306.062V126.473H303.865V123.797H301.697V126.473H300.086V128.152H301.697V134.227C301.697 135.242 301.954 135.975 302.469 136.424C302.983 136.873 303.803 137.098 304.93 137.098ZM312.845 137.205C313.509 137.205 314.101 137.12 314.622 136.951C315.149 136.775 315.598 136.544 315.97 136.258C316.347 135.965 316.65 135.643 316.878 135.291C317.106 134.933 317.262 134.572 317.346 134.207L317.366 134.119H315.325L315.296 134.197C315.211 134.399 315.065 134.598 314.856 134.793C314.648 134.982 314.378 135.141 314.046 135.271C313.72 135.402 313.336 135.467 312.893 135.467C312.307 135.467 311.8 135.337 311.37 135.076C310.94 134.816 310.608 134.441 310.374 133.953C310.139 133.465 310.022 132.876 310.022 132.186V131.346C310.022 130.623 310.139 130.014 310.374 129.52C310.615 129.018 310.94 128.641 311.35 128.387C311.761 128.133 312.226 128.006 312.747 128.006C313.268 128.006 313.727 128.13 314.124 128.377C314.527 128.618 314.843 128.986 315.071 129.48C315.299 129.969 315.413 130.59 315.413 131.346V132.176L316.438 130.779H308.968V132.293H317.483V131.551C317.483 130.496 317.291 129.575 316.907 128.787C316.529 127.993 315.986 127.374 315.276 126.932C314.567 126.489 313.72 126.268 312.737 126.268C311.754 126.268 310.898 126.499 310.169 126.961C309.446 127.417 308.886 128.055 308.489 128.875C308.092 129.695 307.893 130.656 307.893 131.756V131.766C307.893 132.879 308.092 133.842 308.489 134.656C308.886 135.47 309.453 136.098 310.188 136.541C310.93 136.984 311.816 137.205 312.845 137.205ZM319.988 137H322.117V130.525C322.117 130.07 322.211 129.66 322.4 129.295C322.589 128.924 322.849 128.631 323.181 128.416C323.52 128.195 323.897 128.084 324.314 128.084C324.933 128.084 325.424 128.263 325.789 128.621C326.153 128.973 326.336 129.451 326.336 130.057V137H328.445V130.359C328.445 129.93 328.536 129.546 328.718 129.207C328.901 128.862 329.158 128.589 329.49 128.387C329.822 128.185 330.209 128.084 330.652 128.084C331.323 128.084 331.827 128.27 332.166 128.641C332.504 129.005 332.673 129.542 332.673 130.252V137H334.793V129.744C334.793 129.021 334.656 128.403 334.382 127.889C334.115 127.368 333.728 126.967 333.22 126.688C332.719 126.408 332.114 126.268 331.404 126.268C330.916 126.268 330.46 126.349 330.037 126.512C329.614 126.668 329.242 126.889 328.923 127.176C328.611 127.462 328.364 127.801 328.181 128.191H328.045C327.895 127.801 327.683 127.462 327.41 127.176C327.136 126.883 326.808 126.658 326.423 126.502C326.039 126.346 325.606 126.268 325.125 126.268C324.435 126.268 323.839 126.43 323.338 126.756C322.843 127.075 322.481 127.521 322.254 128.094H322.117V126.473H319.988V137ZM337.649 128.475H339.143L340.715 122.908H338.489L337.649 128.475ZM346.355 137.205C347.195 137.205 347.94 137.068 348.591 136.795C349.249 136.521 349.766 136.141 350.144 135.652C350.521 135.158 350.71 134.585 350.71 133.934V133.914C350.71 133.152 350.466 132.547 349.978 132.098C349.496 131.642 348.741 131.297 347.712 131.062L346.032 130.672C345.453 130.535 345.036 130.359 344.782 130.145C344.529 129.93 344.402 129.66 344.402 129.334V129.314C344.402 129.028 344.483 128.781 344.646 128.572C344.815 128.364 345.046 128.201 345.339 128.084C345.632 127.967 345.971 127.908 346.355 127.908C346.954 127.908 347.432 128.035 347.79 128.289C348.155 128.543 348.383 128.865 348.474 129.256V129.285H350.495V129.246C350.437 128.667 350.235 128.156 349.89 127.713C349.545 127.264 349.073 126.912 348.474 126.658C347.875 126.398 347.172 126.268 346.364 126.268C345.57 126.268 344.864 126.404 344.245 126.678C343.627 126.945 343.142 127.316 342.79 127.791C342.445 128.26 342.273 128.803 342.273 129.422V129.432C342.273 130.2 342.514 130.822 342.995 131.297C343.477 131.772 344.216 132.124 345.212 132.352L346.892 132.732C347.491 132.876 347.917 133.058 348.171 133.279C348.432 133.501 348.562 133.777 348.562 134.109V134.129C348.562 134.415 348.471 134.666 348.288 134.881C348.106 135.096 347.852 135.265 347.527 135.389C347.208 135.506 346.83 135.564 346.394 135.564C345.762 135.564 345.258 135.441 344.88 135.193C344.502 134.939 344.249 134.604 344.118 134.188L344.109 134.158H341.989L341.999 134.188C342.064 134.786 342.279 135.314 342.644 135.77C343.015 136.219 343.513 136.57 344.138 136.824C344.763 137.078 345.502 137.205 346.355 137.205ZM358.639 137H360.759V130.838C360.759 130.278 360.86 129.793 361.061 129.383C361.27 128.973 361.559 128.654 361.93 128.426C362.302 128.198 362.741 128.084 363.249 128.084C364.024 128.084 364.6 128.309 364.977 128.758C365.355 129.201 365.544 129.858 365.544 130.73V137H367.663V130.252C367.663 129.419 367.52 128.706 367.233 128.113C366.947 127.514 366.53 127.059 365.983 126.746C365.436 126.427 364.772 126.268 363.991 126.268C363.223 126.268 362.578 126.43 362.057 126.756C361.543 127.075 361.156 127.524 360.895 128.104H360.759V122.391H358.639V137ZM370.646 137H372.765V126.473H370.646V137ZM371.711 124.656C372.075 124.656 372.384 124.529 372.638 124.275C372.892 124.015 373.019 123.709 373.019 123.357C373.019 122.993 372.892 122.687 372.638 122.439C372.384 122.186 372.075 122.059 371.711 122.059C371.352 122.059 371.043 122.186 370.783 122.439C370.529 122.687 370.402 122.993 370.402 123.357C370.402 123.709 370.529 124.015 370.783 124.275C371.043 124.529 371.352 124.656 371.711 124.656ZM379.694 137.205C380.534 137.205 381.279 137.068 381.93 136.795C382.588 136.521 383.105 136.141 383.483 135.652C383.86 135.158 384.049 134.585 384.049 133.934V133.914C384.049 133.152 383.805 132.547 383.317 132.098C382.835 131.642 382.08 131.297 381.051 131.062L379.371 130.672C378.792 130.535 378.375 130.359 378.121 130.145C377.868 129.93 377.741 129.66 377.741 129.334V129.314C377.741 129.028 377.822 128.781 377.985 128.572C378.154 128.364 378.385 128.201 378.678 128.084C378.971 127.967 379.31 127.908 379.694 127.908C380.293 127.908 380.771 128.035 381.129 128.289C381.494 128.543 381.722 128.865 381.813 129.256V129.285H383.834V129.246C383.776 128.667 383.574 128.156 383.229 127.713C382.884 127.264 382.412 126.912 381.813 126.658C381.214 126.398 380.511 126.268 379.704 126.268C378.909 126.268 378.203 126.404 377.584 126.678C376.966 126.945 376.481 127.316 376.129 127.791C375.784 128.26 375.612 128.803 375.612 129.422V129.432C375.612 130.2 375.853 130.822 376.334 131.297C376.816 131.772 377.555 132.124 378.551 132.352L380.231 132.732C380.83 132.876 381.256 133.058 381.51 133.279C381.771 133.501 381.901 133.777 381.901 134.109V134.129C381.901 134.415 381.81 134.666 381.627 134.881C381.445 135.096 381.191 135.265 380.866 135.389C380.547 135.506 380.169 135.564 379.733 135.564C379.101 135.564 378.597 135.441 378.219 135.193C377.842 134.939 377.588 134.604 377.457 134.188L377.448 134.158H375.329L375.338 134.188C375.403 134.786 375.618 135.314 375.983 135.77C376.354 136.219 376.852 136.57 377.477 136.824C378.102 137.078 378.841 137.205 379.694 137.205ZM390.421 137.098C390.629 137.098 390.831 137.088 391.027 137.068C391.222 137.049 391.398 137.026 391.554 137V135.32C391.424 135.327 391.303 135.337 391.193 135.35C391.082 135.356 390.952 135.359 390.802 135.359C390.301 135.359 389.933 135.239 389.698 134.998C389.471 134.757 389.357 134.36 389.357 133.807V128.152H391.554V126.473H389.357V123.797H387.189V126.473H385.577V128.152H387.189V134.227C387.189 135.242 387.446 135.975 387.96 136.424C388.474 136.873 389.295 137.098 390.421 137.098ZM398.375 137.205C399.397 137.205 400.279 136.987 401.021 136.551C401.77 136.108 402.346 135.48 402.75 134.666C403.154 133.846 403.355 132.872 403.355 131.746V131.727C403.355 130.594 403.15 129.62 402.74 128.807C402.337 127.993 401.764 127.368 401.021 126.932C400.279 126.489 399.394 126.268 398.365 126.268C397.35 126.268 396.467 126.489 395.719 126.932C394.977 127.368 394.4 127.993 393.99 128.807C393.587 129.62 393.385 130.594 393.385 131.727V131.746C393.385 132.872 393.587 133.846 393.99 134.666C394.394 135.48 394.97 136.108 395.719 136.551C396.467 136.987 397.353 137.205 398.375 137.205ZM398.375 135.428C397.783 135.428 397.275 135.285 396.852 134.998C396.435 134.705 396.113 134.285 395.885 133.738C395.663 133.185 395.553 132.521 395.553 131.746V131.727C395.553 130.945 395.663 130.281 395.885 129.734C396.113 129.188 396.435 128.771 396.852 128.484C397.275 128.191 397.779 128.045 398.365 128.045C398.958 128.045 399.462 128.191 399.879 128.484C400.302 128.771 400.624 129.188 400.846 129.734C401.074 130.281 401.188 130.945 401.188 131.727V131.746C401.188 132.521 401.074 133.182 400.846 133.729C400.624 134.275 400.305 134.695 399.889 134.988C399.472 135.281 398.967 135.428 398.375 135.428ZM405.87 137H407.999V130.711C407.999 130.203 408.106 129.764 408.321 129.393C408.536 129.015 408.839 128.725 409.229 128.523C409.62 128.315 410.076 128.211 410.596 128.211C410.798 128.211 410.99 128.224 411.173 128.25C411.355 128.27 411.527 128.299 411.69 128.338V126.375C411.593 126.355 411.462 126.336 411.3 126.316C411.143 126.297 410.981 126.287 410.811 126.287C410.134 126.287 409.565 126.447 409.102 126.766C408.64 127.085 408.318 127.534 408.136 128.113H407.999V126.473H405.87V137ZM415.005 140.652C415.715 140.652 416.317 140.551 416.812 140.35C417.313 140.154 417.74 139.819 418.091 139.344C418.449 138.875 418.775 138.234 419.068 137.42L422.984 126.473H420.748L417.828 135.857L418.414 134.92H417.662L418.257 135.857L415.328 126.473H413.033L416.861 137.01L416.695 137.537C416.532 138.064 416.298 138.436 415.992 138.65C415.692 138.872 415.295 138.982 414.8 138.982C414.677 138.982 414.553 138.976 414.429 138.963C414.306 138.956 414.192 138.947 414.087 138.934V140.594C414.224 140.613 414.374 140.626 414.537 140.633C414.699 140.646 414.856 140.652 415.005 140.652Z" fill="white"/>
<path d="M41.952 137H44.1492V131.102H50.2039V129.256H44.1492V124.803H50.7605V122.908H41.952V137ZM57.6988 137.205C58.3629 137.205 58.9553 137.12 59.4762 136.951C60.0035 136.775 60.4527 136.544 60.8238 136.258C61.2014 135.965 61.5042 135.643 61.732 135.291C61.9599 134.933 62.1161 134.572 62.2008 134.207L62.2203 134.119H60.1793L60.15 134.197C60.0654 134.399 59.9189 134.598 59.7105 134.793C59.5022 134.982 59.232 135.141 58.9 135.271C58.5745 135.402 58.1904 135.467 57.7477 135.467C57.1617 135.467 56.6539 135.337 56.2242 135.076C55.7945 134.816 55.4625 134.441 55.2281 133.953C54.9938 133.465 54.8766 132.876 54.8766 132.186V131.346C54.8766 130.623 54.9938 130.014 55.2281 129.52C55.469 129.018 55.7945 128.641 56.2047 128.387C56.6148 128.133 57.0803 128.006 57.6012 128.006C58.122 128.006 58.581 128.13 58.9781 128.377C59.3818 128.618 59.6975 128.986 59.9254 129.48C60.1533 129.969 60.2672 130.59 60.2672 131.346V132.176L61.2926 130.779H53.8219V132.293H62.3375V131.551C62.3375 130.496 62.1454 129.575 61.7613 128.787C61.3837 127.993 60.8401 127.374 60.1305 126.932C59.4208 126.489 58.5745 126.268 57.5914 126.268C56.6083 126.268 55.7522 126.499 55.023 126.961C54.3004 127.417 53.7405 128.055 53.3434 128.875C52.9462 129.695 52.7477 130.656 52.7477 131.756V131.766C52.7477 132.879 52.9462 133.842 53.3434 134.656C53.7405 135.47 54.3069 136.098 55.0426 136.541C55.7848 136.984 56.6702 137.205 57.6988 137.205ZM64.8422 137H66.9711V130.711C66.9711 130.203 67.0785 129.764 67.2934 129.393C67.5082 129.015 67.8109 128.725 68.2016 128.523C68.5922 128.315 69.0479 128.211 69.5688 128.211C69.7706 128.211 69.9626 128.224 70.1449 128.25C70.3272 128.27 70.4997 128.299 70.6625 128.338V126.375C70.5648 126.355 70.4346 126.336 70.2719 126.316C70.1156 126.297 69.9529 126.287 69.7836 126.287C69.1065 126.287 68.5368 126.447 68.0746 126.766C67.6124 127.085 67.2901 127.534 67.1078 128.113H66.9711V126.473H64.8422V137ZM72.8352 137H74.9641V130.711C74.9641 130.203 75.0715 129.764 75.2863 129.393C75.5012 129.015 75.8039 128.725 76.1945 128.523C76.5852 128.315 77.0409 128.211 77.5617 128.211C77.7635 128.211 77.9556 128.224 78.1379 128.25C78.3202 128.27 78.4927 128.299 78.6555 128.338V126.375C78.5578 126.355 78.4276 126.336 78.2648 126.316C78.1086 126.297 77.9458 126.287 77.7766 126.287C77.0995 126.287 76.5298 126.447 76.0676 126.766C75.6053 127.085 75.2831 127.534 75.1008 128.113H74.9641V126.473H72.8352V137ZM83.5527 137.186C84.0215 137.186 84.4544 137.117 84.8516 136.98C85.2487 136.844 85.6035 136.648 85.916 136.395C86.2285 136.134 86.4889 135.825 86.6973 135.467H86.834V137H88.9434V129.783C88.9434 129.054 88.7806 128.429 88.4551 127.908C88.1296 127.381 87.6543 126.977 87.0293 126.697C86.4108 126.411 85.6621 126.268 84.7832 126.268C83.9694 126.268 83.2533 126.395 82.6348 126.648C82.0228 126.896 81.528 127.241 81.1504 127.684C80.7793 128.126 80.5547 128.637 80.4766 129.217L80.4668 129.305H82.498L82.5176 129.256C82.6348 128.872 82.8789 128.572 83.25 128.357C83.6211 128.136 84.1061 128.025 84.7051 128.025C85.4017 128.025 85.929 128.182 86.2871 128.494C86.6517 128.807 86.834 129.249 86.834 129.822V133.094C86.834 133.549 86.7168 133.956 86.4824 134.314C86.248 134.673 85.9258 134.959 85.5156 135.174C85.1055 135.382 84.6432 135.486 84.1289 135.486C83.556 135.486 83.0872 135.353 82.7227 135.086C82.3581 134.812 82.1758 134.435 82.1758 133.953V133.934C82.1758 133.471 82.3483 133.107 82.6934 132.84C83.0384 132.573 83.5625 132.42 84.2656 132.381L87.8887 132.156V130.662L83.9824 130.896C82.7324 130.968 81.7656 131.271 81.082 131.805C80.3984 132.339 80.0566 133.074 80.0566 134.012V134.031C80.0566 134.669 80.2064 135.226 80.5059 135.701C80.8118 136.17 81.2253 136.535 81.7461 136.795C82.2734 137.055 82.8757 137.186 83.5527 137.186ZM96.3992 140.711C97.3953 140.711 98.2579 140.548 98.9871 140.223C99.7163 139.897 100.279 139.438 100.677 138.846C101.074 138.26 101.272 137.566 101.272 136.766V126.473H99.1531V128.221H99.0457C98.8374 127.824 98.5737 127.482 98.2547 127.195C97.9422 126.902 97.5776 126.678 97.1609 126.521C96.7508 126.365 96.2983 126.287 95.8035 126.287C94.8986 126.287 94.1173 126.505 93.4598 126.941C92.8022 127.378 92.2911 127.986 91.9266 128.768C91.5685 129.542 91.3895 130.441 91.3895 131.463V131.482C91.3895 132.498 91.5685 133.39 91.9266 134.158C92.2846 134.926 92.7892 135.529 93.4402 135.965C94.0978 136.395 94.8725 136.609 95.7645 136.609C96.2527 136.609 96.7052 136.541 97.1219 136.404C97.5385 136.261 97.9064 136.056 98.2254 135.789C98.5509 135.516 98.8178 135.187 99.0262 134.803H99.1629V136.727C99.1629 137.449 98.922 138.009 98.4402 138.406C97.9585 138.81 97.2846 139.012 96.4188 139.012C95.7221 139.012 95.159 138.898 94.7293 138.67C94.3061 138.442 94.0457 138.149 93.948 137.791L93.9285 137.762H91.7898V137.801C91.881 138.374 92.1186 138.878 92.5027 139.314C92.8934 139.751 93.4174 140.092 94.075 140.34C94.7326 140.587 95.5073 140.711 96.3992 140.711ZM96.3504 134.861C95.7645 134.861 95.2632 134.721 94.8465 134.441C94.4298 134.155 94.1108 133.761 93.8895 133.26C93.6681 132.752 93.5574 132.16 93.5574 131.482V131.473C93.5574 130.802 93.6681 130.213 93.8895 129.705C94.1108 129.197 94.4298 128.803 94.8465 128.523C95.2632 128.237 95.7645 128.094 96.3504 128.094C96.9363 128.094 97.4409 128.237 97.8641 128.523C98.2872 128.803 98.6128 129.197 98.8406 129.705C99.075 130.213 99.1922 130.802 99.1922 131.473V131.492C99.1922 132.156 99.075 132.742 98.8406 133.25C98.6128 133.758 98.2872 134.155 97.8641 134.441C97.4409 134.721 96.9363 134.861 96.3504 134.861ZM107.234 137.186C107.703 137.186 108.136 137.117 108.533 136.98C108.93 136.844 109.285 136.648 109.597 136.395C109.91 136.134 110.17 135.825 110.379 135.467H110.515V137H112.625V129.783C112.625 129.054 112.462 128.429 112.136 127.908C111.811 127.381 111.336 126.977 110.711 126.697C110.092 126.411 109.343 126.268 108.464 126.268C107.651 126.268 106.935 126.395 106.316 126.648C105.704 126.896 105.209 127.241 104.832 127.684C104.461 128.126 104.236 128.637 104.158 129.217L104.148 129.305H106.179L106.199 129.256C106.316 128.872 106.56 128.572 106.931 128.357C107.302 128.136 107.787 128.025 108.386 128.025C109.083 128.025 109.61 128.182 109.968 128.494C110.333 128.807 110.515 129.249 110.515 129.822V133.094C110.515 133.549 110.398 133.956 110.164 134.314C109.929 134.673 109.607 134.959 109.197 135.174C108.787 135.382 108.324 135.486 107.81 135.486C107.237 135.486 106.768 135.353 106.404 135.086C106.039 134.812 105.857 134.435 105.857 133.953V133.934C105.857 133.471 106.03 133.107 106.375 132.84C106.72 132.573 107.244 132.42 107.947 132.381L111.57 132.156V130.662L107.664 130.896C106.414 130.968 105.447 131.271 104.763 131.805C104.08 132.339 103.738 133.074 103.738 134.012V134.031C103.738 134.669 103.888 135.226 104.187 135.701C104.493 136.17 104.907 136.535 105.427 136.795C105.955 137.055 106.557 137.186 107.234 137.186ZM115.588 137H117.717V130.525C117.717 130.07 117.812 129.66 118 129.295C118.189 128.924 118.45 128.631 118.782 128.416C119.12 128.195 119.498 128.084 119.914 128.084C120.533 128.084 121.024 128.263 121.389 128.621C121.754 128.973 121.936 129.451 121.936 130.057V137H124.045V130.359C124.045 129.93 124.136 129.546 124.319 129.207C124.501 128.862 124.758 128.589 125.09 128.387C125.422 128.185 125.81 128.084 126.252 128.084C126.923 128.084 127.427 128.27 127.766 128.641C128.105 129.005 128.274 129.542 128.274 130.252V137H130.393V129.744C130.393 129.021 130.256 128.403 129.983 127.889C129.716 127.368 129.329 126.967 128.821 126.688C128.319 126.408 127.714 126.268 127.004 126.268C126.516 126.268 126.06 126.349 125.637 126.512C125.214 126.668 124.843 126.889 124.524 127.176C124.211 127.462 123.964 127.801 123.782 128.191H123.645C123.495 127.801 123.284 127.462 123.01 127.176C122.737 126.883 122.408 126.658 122.024 126.502C121.64 126.346 121.207 126.268 120.725 126.268C120.035 126.268 119.439 126.43 118.938 126.756C118.443 127.075 118.082 127.521 117.854 128.094H117.717V126.473H115.588V137ZM137.81 137.205C138.832 137.205 139.714 136.987 140.456 136.551C141.205 136.108 141.781 135.48 142.185 134.666C142.588 133.846 142.79 132.872 142.79 131.746V131.727C142.79 130.594 142.585 129.62 142.175 128.807C141.771 127.993 141.198 127.368 140.456 126.932C139.714 126.489 138.829 126.268 137.8 126.268C136.784 126.268 135.902 126.489 135.154 126.932C134.411 127.368 133.835 127.993 133.425 128.807C133.021 129.62 132.82 130.594 132.82 131.727V131.746C132.82 132.872 133.021 133.846 133.425 134.666C133.829 135.48 134.405 136.108 135.154 136.551C135.902 136.987 136.788 137.205 137.81 137.205ZM137.81 135.428C137.217 135.428 136.71 135.285 136.286 134.998C135.87 134.705 135.547 134.285 135.32 133.738C135.098 133.185 134.988 132.521 134.988 131.746V131.727C134.988 130.945 135.098 130.281 135.32 129.734C135.547 129.188 135.87 128.771 136.286 128.484C136.71 128.191 137.214 128.045 137.8 128.045C138.392 128.045 138.897 128.191 139.314 128.484C139.737 128.771 140.059 129.188 140.28 129.734C140.508 130.281 140.622 130.945 140.622 131.727V131.746C140.622 132.521 140.508 133.182 140.28 133.729C140.059 134.275 139.74 134.695 139.323 134.988C138.907 135.281 138.402 135.428 137.81 135.428Z" fill="white"/>
<defs>
<filter id="filter0_b_122_175" x="-120" y="-120" width="703" height="498" filterUnits="userSpaceOnUse" color-interpolation-filters="sRGB">
<feFlood flood-opacity="0" result="BackgroundImageFix"/>
<feGaussianBlur in="BackgroundImage" stdDeviation="60"/>
<feComposite in2="SourceAlpha" operator="in" result="effect1_backgroundBlur_122_175"/>
<feBlend mode="normal" in="SourceGraphic" in2="effect1_backgroundBlur_122_175" result="shape"/>
</filter>
<filter id="filter1_b_122_175" x="139" y="51" width="369" height="157" filterUnits="userSpaceOnUse" color-interpolation-filters="sRGB">
<feFlood flood-opacity="0" result="BackgroundImageFix"/>
<feGaussianBlur in="BackgroundImage" stdDeviation="30"/>
<feComposite in2="SourceAlpha" operator="in" result="effect1_backgroundBlur_122_175"/>
<feBlend mode="normal" in="SourceGraphic" in2="effect1_backgroundBlur_122_175" result="shape"/>
</filter>
<linearGradient id="paint0_linear_122_175" x1="-7.04565" y1="198.783" x2="483.13" y2="198.783" gradientUnits="userSpaceOnUse">
<stop stop-color="white"/>
<stop offset="1" stop-color="white" stop-opacity="0.24"/>
</linearGradient>
<linearGradient id="paint1_linear_122_175" x1="0" y1="0" x2="152.007" y2="400.909" gradientUnits="userSpaceOnUse">
<stop stop-color="white" stop-opacity="0.28"/>
<stop offset="1" stop-color="white" stop-opacity="0"/>
</linearGradient>
<linearGradient id="paint2_linear_122_175" x1="457.555" y1="132.738" x2="116.621" y2="132.737" gradientUnits="userSpaceOnUse">
<stop stop-color="white"/>
<stop offset="1" stop-color="white" stop-opacity="0.24"/>
</linearGradient>
<linearGradient id="paint3_linear_122_175" x1="452.654" y1="154.475" x2="441.59" y2="68.9564" gradientUnits="userSpaceOnUse">
<stop stop-color="white" stop-opacity="0.08"/>
<stop offset="1" stop-color="white" stop-opacity="0.24"/>
</linearGradient>
</defs>
</svg>
